<svg width="25" height="24" viewBox="0 0 25 24" fill="none" xmlns="http://www.w3.org/2000/svg">
<path d="M16.8359 1.00009C16.8359 1.00009 15.2 1.03971 13.7 2.53971C12.2 4.03971 12.453 6.06046 12.453 6.06046C12.453 6.06046 13.9379 6.33198 15.5226 4.74726C17.1074 3.16253 16.8359 1.00009 16.8359 1.00009Z" fill="white"/>
<path d="M12.6245 7.33961C11.5188 7.33204 10.8396 6.37734 8.9566 6.37734C7.26225 6.37734 5.56373 7.47052 4.84151 8.52828C4.12264 9.58111 3.5 10.7358 3.5 13.0792C3.5 15.4226 4.62832 19.4528 7.40285 22.1811C7.878 22.6483 8.50698 22.9995 9.22454 23.0213C10.5151 23.0604 11.3076 22.0943 12.9377 22.0943C14.5679 22.0943 15.0585 23.0213 16.5302 23.0213C17.1994 23.0213 17.9626 22.7165 18.7038 21.9283C19.6547 20.917 20.8347 18.9909 21.4358 17.1434C21.4358 17.1434 18.4258 15.9809 18.4622 12.6302C18.4924 9.85281 20.8509 8.48676 20.8509 8.48676C20.8509 8.48676 19.4735 6.29053 16.5453 6.29053C14.5226 6.30566 13.6169 7.3464 12.6245 7.33961Z" fill="white"/>
</svg>
