<svg width="18" height="16" viewBox="0 0 18 16" fill="none" xmlns="http://www.w3.org/2000/svg">
<path d="M15.7663 2.79796C15.3753 2.40682 14.9111 2.09655 14.4002 1.88486C13.8893 1.67317 13.3417 1.56421 12.7887 1.56421C12.2357 1.56421 11.6881 1.67317 11.1772 1.88486C10.6663 2.09655 10.2021 2.40682 9.81116 2.79796L9.30817 3.30095C9.13786 3.47126 8.86173 3.47126 8.69142 3.30095L8.18843 2.79796C7.39874 2.00826 6.32768 1.56462 5.21089 1.56462C4.09409 1.56462 3.02303 2.00826 2.23334 2.79796C1.44365 3.58765 1 4.65871 1 5.7755C1 6.8923 1.44365 7.96336 2.23334 8.75305L7.14957 13.6693C8.17142 14.6911 9.82817 14.6911 10.85 13.6693L15.7663 8.75305C16.1574 8.3621 16.4677 7.89792 16.6794 7.38702C16.891 6.87612 17 6.32852 17 5.7755C17 5.22249 16.891 4.67489 16.6794 4.16399C16.4677 3.65309 16.1574 3.18891 15.7663 2.79796Z" stroke="#131214" stroke-width="1.5" stroke-linecap="round" stroke-linejoin="round"/>
</svg>
