<svg width="16" height="14" viewBox="0 0 16 14" fill="none" xmlns="http://www.w3.org/2000/svg">
<path d="M14.7663 1.79796C14.3753 1.40682 13.9111 1.09655 13.4002 0.884857C12.8893 0.673167 12.3417 0.564209 11.7887 0.564209C11.2357 0.564209 10.6881 0.673167 10.1772 0.884857C9.66629 1.09655 9.20211 1.40682 8.81116 1.79796L8.30817 2.30095C8.13786 2.47126 7.86173 2.47126 7.69142 2.30095L7.18843 1.79796C6.39874 1.00826 5.32768 0.564618 4.21089 0.564618C3.09409 0.564618 2.02303 1.00826 1.23334 1.79796C0.443646 2.58765 8.32078e-09 3.65871 0 4.7755C-8.32078e-09 5.8923 0.443646 6.96336 1.23334 7.75305L6.14957 12.6693C7.17142 13.6911 8.82817 13.6911 9.85002 12.6693L14.7663 7.75305C15.1574 7.3621 15.4677 6.89792 15.6794 6.38702C15.891 5.87612 16 5.32852 16 4.7755C16 4.22249 15.891 3.67489 15.6794 3.16399C15.4677 2.65309 15.1574 2.18891 14.7663 1.79796Z" fill="#006400"/>
</svg>
