<svg width="21" height="20" viewBox="0 0 21 20" fill="none" xmlns="http://www.w3.org/2000/svg">
<g clip-path="url(#clip0_139_10)">
<path d="M20.2613 10.2302C20.2613 9.55038 20.2061 8.86694 20.0886 8.19819H10.6562V12.049H16.0577C15.8335 13.291 15.1134 14.3896 14.0588 15.0878V17.5864H17.2813C19.1736 15.8447 20.2613 13.2726 20.2613 10.2302Z" fill="#4285F4"/>
<path d="M10.6563 20.0007C13.3533 20.0007 15.6278 19.1152 17.285 17.5866L14.0625 15.088C13.1659 15.6979 12.0085 16.0433 10.6599 16.0433C8.05108 16.0433 5.83907 14.2833 5.04539 11.9169H1.72002V14.4927C3.41761 17.8695 6.87526 20.0007 10.6563 20.0007Z" fill="#34A853"/>
<path d="M5.0417 11.917C4.62281 10.675 4.62281 9.33019 5.0417 8.08823V5.51244H1.72C0.301666 8.33809 0.301666 11.6671 1.72 14.4928L5.0417 11.917Z" fill="#FBBC04"/>
<path d="M10.6563 3.95805C12.0819 3.936 13.4599 4.47247 14.4924 5.45722L17.3474 2.60218C15.5396 0.904587 13.1402 -0.0287217 10.6563 0.000673888C6.87526 0.000673888 3.41761 2.13185 1.72002 5.51234L5.04171 8.08813C5.83172 5.71811 8.04741 3.95805 10.6563 3.95805Z" fill="#EA4335"/>
</g>
<defs>
<clipPath id="clip0_139_10">
<rect width="20" height="20" fill="white" transform="translate(0.5)"/>
</clipPath>
</defs>
</svg>
