<svg width="18" height="18" viewBox="0 0 18 18" fill="none" xmlns="http://www.w3.org/2000/svg">
<path d="M1.04837 10H4.67157C5.202 10 5.71071 10.2107 6.08578 10.5858L6.91421 11.4142C7.28928 11.7893 7.79799 12 8.32842 12H9.67157C10.202 12 10.7107 11.7893 11.0858 11.4142L11.9142 10.5858C12.2893 10.2107 12.798 10 13.3284 10H16.9516M1.00001 9.36931L1 14C0.999998 15.6569 2.34314 17 4 17H14C15.6569 17 17 15.6569 17 14V9.36932C17 9.12403 16.9699 8.87967 16.9104 8.64171L15.5681 3.27239C15.2342 1.93689 14.0343 1 12.6577 1H5.34234C3.96573 1 2.76578 1.93689 2.43191 3.27239L1.08958 8.64171C1.03009 8.87967 1.00001 9.12403 1.00001 9.36931Z" stroke="#131214" stroke-width="1.5"/>
</svg>
