<svg xmlns="http://www.w3.org/2000/svg" enable-background="new 0 0 100 100" viewBox="0 0 100 100" id="kakao-talk"><g><path fill="#3d1d1c" d="M50.208,7.556C6.123,7.324-14.318,53.867,25.774,74.543c-0.705,2.429-4.527,15.63-4.68,16.667
				c-0.109,0.811,0.509,1.491,1.511,1.143C24.053,92.15,39.385,81.38,42.039,79.51C105.612,87.119,118.13,10.476,50.208,7.556z"></path><path fill="#ffe812" d="M27.433 53.943c-.086 3.333-5.216 3.346-5.307 0 0 0 0-15.763 0-15.763h-4.14c-3.429-.087-3.436-5.107 0-5.196 0 0 13.587 0 13.587 0 3.431.091 3.435 5.105 0 5.196 0 0-4.14 0-4.14 0V53.943zM49.733 56.076c-1.191.628-3.495.475-3.895-.806 0 0-1.314-3.44-1.314-3.44l-8.091 0-1.315 3.442c-.398 1.279-2.703 1.433-3.893.804-.732-.337-1.435-1.265-.629-3.768l6.347-16.705c1.299-3.426 5.766-3.441 7.073.003 0 0 6.344 16.698 6.344 16.698C51.167 54.812 50.464 55.74 49.733 56.076zM63.143 56.09H54.63c-1.402 0-2.543-1.091-2.543-2.432V35.637c.091-3.492 5.324-3.503 5.417 0 0 0 0 15.588 0 15.588h5.639C66.492 51.308 66.499 56.005 63.143 56.09zM83.914 54.092c-.236 2.275-3.433 3.113-4.745 1.231 0 0-6.222-8.245-6.222-8.245l-.921.921v5.789c-.087 3.492-5.216 3.505-5.308.001 0 0 0-18.152 0-18.152.092-3.495 5.213-3.502 5.307 0 0 0 0 5.703 0 5.703l7.403-7.403c.888-.901 2.432-.707 3.298.193.901.856 1.096 2.418.195 3.298l-6.047 6.046 6.531 8.653C83.83 52.687 84.013 53.395 83.914 54.092z"></path><polygon fill="#3d1d1c" points="37.829 47.131 43.129 47.131 40.479 39.602"></polygon></g></svg>