<svg width="24" height="24" viewBox="0 0 24 24" fill="none" xmlns="http://www.w3.org/2000/svg">
<path d="M6.18458 0.0608834C5.93674 0.162579 5.86384 0.264274 5.76179 0.660887C5.63058 1.17953 5.64516 2.07445 5.79095 2.53208C6.22832 3.83379 7.59873 4.85074 9.69809 5.46091C10.325 5.64396 11.6954 5.90837 12.0016 5.90837C12.1911 5.90837 12.366 6.05075 12.8471 6.5999L13.1533 6.94567L12.9346 7.5355C12.818 7.85076 12.7159 8.18635 12.7159 8.26771C12.7013 8.6033 13.2408 8.57279 6.28663 8.57279C0.294701 8.57279 -0.0406145 8.58296 0.00312217 8.66432C0.03228 8.71517 0.2947 9.57958 0.615436 10.566C0.936172 11.5626 1.21317 12.4271 1.22775 12.4881C1.27149 12.5999 1.31522 12.6101 1.97127 12.6203L2.67106 12.6406L3.25422 18.122C3.57495 21.1322 3.83737 23.6949 3.83737 23.7966L3.85195 24H11.9724H20.0929L20.1366 23.7254C20.1657 23.5729 20.4136 21.1525 20.7052 18.3559C20.9967 15.5593 21.2592 13.1186 21.2883 12.9355L21.3321 12.6101H22.0318H22.7316L23.3294 10.7084C23.6647 9.66094 23.9417 8.75585 23.9708 8.68466L24 8.56262H18.9411H13.8822L13.9406 8.32873C14.1447 7.44397 14.6841 6.48804 15.2235 6.09143C15.4713 5.90837 15.6026 5.84736 15.8941 5.82702C16.8272 5.73549 18.4163 5.23718 19.3056 4.75921C20.8218 3.94565 21.8423 2.55242 22.0173 1.07784C22.1047 0.335461 21.8715 0.223596 20.3407 0.264274C19.2764 0.294783 18.4892 0.426987 17.7165 0.691395C15.7921 1.36259 14.582 2.88802 14.3488 4.91176C14.2905 5.42023 14.2759 5.46091 14.0135 5.69481L13.7365 5.94905L13.4011 5.58295C13.095 5.25752 13.0512 5.17617 12.9638 4.68803C12.5847 2.30835 10.5437 0.681226 7.21968 0.101561C6.54905 -0.0204731 6.38868 -0.0306427 6.18458 0.0608834ZM8.18189 1.25072C9.68352 1.71852 10.8498 2.62361 11.3892 3.75243C11.6225 4.2304 11.812 4.88125 11.7391 4.94227C11.6662 4.99311 10.704 4.78972 10.0771 4.5965C9.18783 4.33209 8.67757 4.09819 8.10899 3.72192C7.26342 3.13209 6.88437 2.50157 6.88437 1.61682C6.88437 0.945634 6.88437 0.945634 7.36547 1.04733C7.59873 1.08801 7.96321 1.17953 8.18189 1.25072ZM20.7489 1.33208C20.3115 3.07107 18.7808 4.29141 16.3752 4.8304C15.6463 4.99311 15.6463 4.99311 15.7046 4.63718C15.7921 4.11853 16.0545 3.50836 16.419 2.97954C16.7105 2.57276 16.8855 2.39988 17.352 2.07445C17.6728 1.85072 18.1101 1.60665 18.3288 1.5253C18.8536 1.33208 19.7284 1.16936 20.3115 1.16936L20.7926 1.15919L20.7489 1.33208ZM22.3963 9.5389C22.3963 9.57958 22.3234 9.81348 22.2505 10.0575C22.1631 10.3016 22.0173 10.7796 21.9006 11.1152L21.6965 11.7355H12.0016C6.68026 11.7355 2.30659 11.7152 2.27743 11.6948C2.24827 11.6643 1.54849 9.52873 1.54849 9.47788C1.54849 9.46771 6.22832 9.45755 11.9578 9.45755C20.9239 9.46771 22.3963 9.47788 22.3963 9.5389ZM20.0345 12.783C20.0345 12.8542 19.7867 15.1525 19.4951 17.9084C19.2035 20.6644 18.9557 22.9525 18.9557 23.0034C18.9557 23.0949 18.5766 23.0949 12.0161 23.0949H5.07658L5.04742 22.9729C5.01827 22.9119 4.785 20.6644 4.508 17.9898C4.231 15.3152 3.98316 13.0169 3.95401 12.8949L3.91027 12.6711H11.9578H20.02V12.783H20.0345Z" fill="black"/>
</svg>
