<svg width="24" height="24" viewBox="0 0 24 24" fill="none" xmlns="http://www.w3.org/2000/svg">
<path d="M17.2356 20C17.8451 20 18.4071 19.6713 18.7059 19.1401V19.1401C19.0219 18.5784 18.9872 17.8849 18.5194 17.4417C17.5128 16.488 15.3978 15 12 15C8.60834 15 6.59708 16.4827 5.6541 17.4365C5.20946 17.8863 5.19264 18.5647 5.50271 19.1159V19.1159" stroke="#0B0C0C" stroke-width="1.5" stroke-linecap="round" stroke-linejoin="round"/>
<path d="M12.1111 11.1111C14.0748 11.1111 15.6667 9.51924 15.6667 7.55556C15.6667 5.59188 14.0748 4 12.1111 4C10.1474 4 8.55556 5.59188 8.55556 7.55556C8.55556 9.51924 10.1474 11.1111 12.1111 11.1111Z" stroke="#0B0C0C" stroke-width="1.5" stroke-linecap="round" stroke-linejoin="round"/>
</svg>
